<svg xmlns="http://www.w3.org/2000/svg" style="display:none" aria-hidden="true">
  <defs>
    <style>
      symbol { color: #a9832f; }
    </style>
  </defs>

  <symbol id="ic-cups" viewBox="0 0 64 64" fill="none" stroke="currentColor" stroke-width="2" stroke-linecap="round" stroke-linejoin="round">
    <path d="M16 16 H48 C47 31 40.5 39 32 39 C23.5 39 17 31 16 16 Z"/>
    <path d="M32 39 V49"/>
    <path d="M23 53 C23 49 41 49 41 53"/>
    <path d="M22 53 H42"/>
    <circle cx="32" cy="23" r="3"/>
  </symbol>

  <symbol id="ic-pentacles" viewBox="0 0 64 64" fill="none" stroke="currentColor" stroke-width="2" stroke-linecap="round" stroke-linejoin="round">
    <circle cx="32" cy="32" r="18"/>
    <path d="M32 20 L39.1 41.7 L20.6 28.3 L43.4 28.3 L24.9 41.7 Z"/>
  </symbol>

  <symbol id="ic-swords" viewBox="0 0 64 64" fill="none" stroke="currentColor" stroke-width="2" stroke-linecap="round" stroke-linejoin="round">
    <path d="M28 16 L32 8 L36 16"/>
    <path d="M32 8 V46"/>
    <path d="M22 46 H42"/>
    <path d="M32 46 V56"/>
    <circle cx="32" cy="58" r="2"/>
  </symbol>

  <symbol id="ic-wands" viewBox="0 0 64 64" fill="none" stroke="currentColor" stroke-width="2" stroke-linecap="round" stroke-linejoin="round">
    <path d="M32 56 V16"/>
    <path d="M32 26 C26 26 22 22 22 15"/>
    <path d="M32 32 C38 32 42 28 42 21"/>
    <path d="M32 9 V15 M29 12 H35"/>
  </symbol>

  <symbol id="ic-fire" viewBox="0 0 64 64" fill="none" stroke="currentColor" stroke-width="2" stroke-linecap="round" stroke-linejoin="round">
    <path d="M32 8 C39 20 41 27 37 36 C41 34 42 29 42 29 C46 39 40 54 32 54 C24 54 18 46 23 36 C25 40 27 39 28 37 C24 29 27 19 32 8 Z"/>
  </symbol>

  <symbol id="ic-water" viewBox="0 0 64 64" fill="none" stroke="currentColor" stroke-width="2" stroke-linecap="round" stroke-linejoin="round">
    <path d="M32 8 C32 8 18 27 18 38 A14 14 0 1 0 46 38 C46 27 32 8 32 8 Z"/>
    <path d="M26 40 A7 7 0 0 0 33 47"/>
  </symbol>

  <symbol id="ic-air" viewBox="0 0 64 64" fill="none" stroke="currentColor" stroke-width="2" stroke-linecap="round" stroke-linejoin="round">
    <path d="M14 26 H38 A6 6 0 1 0 32 20"/>
    <path d="M14 34 H46 A6 6 0 1 1 40 40"/>
    <path d="M14 42 H30"/>
  </symbol>

  <symbol id="ic-earth" viewBox="0 0 64 64" fill="none" stroke="currentColor" stroke-width="2" stroke-linecap="round" stroke-linejoin="round">
    <path d="M16 48 C16 28 34 14 48 14 C48 34 34 48 16 48 Z"/>
    <path d="M22 44 C30 36 40 26 45 19"/>
  </symbol>

  <symbol id="ic-myth" viewBox="0 0 64 64" fill="none" stroke="currentColor" stroke-width="2" stroke-linecap="round" stroke-linejoin="round">
    <path d="M42 12 A21 21 0 1 0 42 52 A16 16 0 1 1 42 12 Z"/>
    <path d="M48 14 l1.2 3.4 3.4 1.2 -3.4 1.2 -1.2 3.4 -1.2 -3.4 -3.4 -1.2 3.4 -1.2 Z"/>
  </symbol>

  <symbol id="ic-reality" viewBox="0 0 64 64" fill="none" stroke="currentColor" stroke-width="2" stroke-linecap="round" stroke-linejoin="round">
    <path d="M10 32 C20 21 44 21 54 32 C44 43 20 43 10 32 Z"/>
    <circle cx="32" cy="32" r="6"/>
    <circle cx="32" cy="32" r="1.5" fill="currentColor" stroke="none"/>
  </symbol>

  <symbol id="ic-star" viewBox="0 0 64 64" fill="none" stroke="currentColor" stroke-width="2" stroke-linecap="round" stroke-linejoin="round">
    <path d="M32 8 L35 29 L56 32 L35 35 L32 56 L29 35 L8 32 L29 29 Z"/>
    <circle cx="17" cy="17" r="1.5" fill="currentColor" stroke="none"/>
    <circle cx="47" cy="47" r="1.5" fill="currentColor" stroke="none"/>
  </symbol>

  <symbol id="ic-crown" viewBox="0 0 64 64" fill="none" stroke="currentColor" stroke-width="2" stroke-linecap="round" stroke-linejoin="round">
    <path d="M12 44 V24 L22 32 L32 16 L42 32 L52 24 V44 Z"/>
    <path d="M12 48 H52"/>
  </symbol>

  <symbol id="ic-book" viewBox="0 0 64 64" fill="none" stroke="currentColor" stroke-width="2" stroke-linecap="round" stroke-linejoin="round">
    <path d="M32 18 C26 14 16 14 11 16 V46 C16 44 26 44 32 48 C38 44 48 44 53 46 V16 C48 14 38 14 32 18 Z"/>
    <path d="M32 18 V48"/>
  </symbol>

  <symbol id="ic-deck" viewBox="0 0 64 64" fill="none" stroke="currentColor" stroke-width="2" stroke-linecap="round" stroke-linejoin="round">
    <rect x="23" y="17" width="18" height="28" rx="2" transform="rotate(-14 32 31)"/>
    <rect x="23" y="17" width="18" height="28" rx="2" transform="rotate(14 32 31)"/>
    <rect x="23" y="17" width="18" height="28" rx="2"/>
    <path d="M32 26 l1.5 4.5 4.5 0 -3.6 2.8 1.4 4.5 -3.8 -2.8 -3.8 2.8 1.4 -4.5 -3.6 -2.8 4.5 0 Z"/>
  </symbol>
</svg>
